/* XPM */
static char * 11_xpm[] = {
"32 32 2 1",
" 	c #FFFFFFFFFFFF",
".	c #000000000000",
"                                ",
"                                ",
"                                ",
"                                ",
"                                ",
"                                ",
"                                ",
"                                ",
"              .      .          ",
"             ..     ..          ",
"            ...    ...          ",
"           .. .   .. .          ",
"          ..  .  ..  .          ",
"              .      .          ",
"              .      .          ",
"              .      .          ",
"              .      .          ",
"              .      .          ",
"              .      .          ",
"              .      .          ",
"              .      .          ",
"              .      .          ",
"              .      .          ",
"                                ",
"                                ",
"                                ",
"                                ",
"                                ",
"                                ",
"                                ",
"                                ",
"                                "};
