/* XPM */
static char * 12_xpm[] = {
"32 32 2 1",
" 	c #FFFFFFFFFFFF",
".	c #000000000000",
"                                ",
"                                ",
"                                ",
"                                ",
"                                ",
"                                ",
"                                ",
"                                ",
"              . ......          ",
"             ..      .          ",
"            ...      .          ",
"           .. .      .          ",
"          ..  .      .          ",
"              .      .          ",
"              .      .          ",
"              . ......          ",
"              . .               ",
"              . .               ",
"              . .               ",
"              . .               ",
"              . .               ",
"              . .               ",
"              . ......          ",
"                                ",
"                                ",
"                                ",
"                                ",
"                                ",
"                                ",
"                                ",
"                                ",
"                                "};
