/* XPM */
static char * off_xpm[] = {
"8 9 2 1",
" 	c #000000000000",
".	c #FFFFFFFFFFFF",
" ...... ",
". .... .",
".. .. ..",
"...  ...",
"...  ...",
".. .. ..",
". .... .",
" ...... ",
"........"};
